<?xml version="1.0"?>
<svg xmlns="http://www.w3.org/2000/svg" height="512px" viewBox="0 -37 512 512" width="512px" class=""><g><path d="m15 56.945312h232.832031l-25.230469-48.832031c-2.574218-4.980469-7.714843-8.113281-13.324218-8.113281h-171.960938c-6.457031 0-12.1875 4.132812-14.230468 10.257812l-15.789063 47.359376c2.503906-.433594 5.074219-.671876 7.703125-.671876zm0 0" data-original="#000000" class="active-path" data-old_color="#AD6E6E" fill="#0070E0"/><path d="m497 438.496094h-482c-8.285156 0-15-6.714844-15-15v-321.550782c0-8.28125 6.714844-15 15-15h482c8.285156 0 15 6.71875 15 15v321.550782c0 8.285156-6.714844 15-15 15zm0 0" data-original="#000000" class="active-path" data-old_color="#AD6E6E" fill="#0070E0"/></g> </svg>
